<svg width="16" height="16" viewBox="0 0 16 16" fill="none" xmlns="http://www.w3.org/2000/svg">
<path fill-rule="evenodd" clip-rule="evenodd" d="M0.666656 7.99996C0.666656 12.05 3.9499 15.3333 7.99999 15.3333C12.0501 15.3333 15.3333 12.05 15.3333 7.99996C15.3333 3.94987 12.0501 0.666626 7.99999 0.666626C3.9499 0.666626 0.666656 3.94987 0.666656 7.99996ZM14 7.99996C14 11.3137 11.3137 14 7.99999 14C4.68628 14 1.99999 11.3137 1.99999 7.99996C1.99999 4.68625 4.68628 1.99996 7.99999 1.99996C11.3137 1.99996 14 4.68625 14 7.99996ZM8.66907 9.33219H9.3353V10.6655H6.66863V9.33219H7.3353V7.99886H6.66863V6.66552H8.66907V9.33219ZM8.6671 5.33219C8.6671 5.70038 8.36852 5.99885 8.00021 5.99885C7.6319 5.99885 7.33332 5.70038 7.33332 5.33219C7.33332 4.964 7.6319 4.66552 8.00021 4.66552C8.36852 4.66552 8.6671 4.964 8.6671 5.33219Z" fill="#9EAFC7"/>
</svg>
