<!--?xml version="1.0" encoding="iso-8859-1"?-->
<!-- Generator: Adobe Illustrator 24.0.1, SVG Export Plug-In . SVG Version: 6.00 Build 0)  -->
<svg version="1.1" id="_x35_" xmlns="http://www.w3.org/2000/svg" xmlns:xlink="http://www.w3.org/1999/xlink" x="0px" y="0px" viewBox="0 0 512 512" style="width: 48px; height: 48px;" xml:space="preserve">
<style type="text/css">
	.st0{fill:#005651;}
	.st1{fill:#003D3E;}
	.st2{fill:#C5AF6A;}
	.st3{fill:#F1F1EF;}
	.st4{opacity:0.2;fill:#FFFFFF;}
</style>
<g>
	<circle class="st0" cx="256" cy="256" r="256"></circle>
	<path class="st1" d="M354,62.9v214.9c0,45.9-37.2,83.1-83.1,83.1H241c-45.9,0-83.1-37.2-83.1-83.1V62.9c29.4-15,62.7-23.4,98-23.4
		C291.3,39.5,324.6,47.9,354,62.9z"></path>
	
		<ellipse transform="matrix(0.1651 -0.9863 0.9863 0.1651 54.1261 387.5821)" class="st2" cx="256" cy="161.8" rx="31.5" ry="31.5"></ellipse>
	<g>
		<path class="st3" d="M293.2,312.9h-74.4c-2.9,0-5.3-2.4-5.3-5.3v-64.8h85v64.8C298.5,310.5,296.1,312.9,293.2,312.9z"></path>
		
			<ellipse transform="matrix(0.2286 -0.9735 0.9735 0.2286 -10.5682 310.3025)" class="st3" cx="190.5" cy="161.8" rx="11.9" ry="11.9"></ellipse>
		
			<ellipse transform="matrix(0.7071 -0.7071 0.7071 0.7071 -20.2585 274.7314)" class="st3" cx="321.5" cy="161.8" rx="11.9" ry="11.9"></ellipse>
	</g>
	<g>
		<path class="st2" d="M248.3,297.9h15.5c11,0,19.8-8.9,19.8-19.8v-20.4h-55.2v20.4C228.4,289,237.3,297.9,248.3,297.9z"></path>
		<path class="st2" d="M354,110.6v167.2c0,45.9-37.2,83.1-83.1,83.1h-30c-45.9,0-83.1-37.2-83.1-83.1V110.6
			c-8.8,4.4-17.2,9.5-25.2,15v152.2c0,59.7,48.5,108.3,108.2,108.3h30c59.7,0,108.3-48.6,108.3-108.3V125.6
			C371.2,120.1,362.8,115,354,110.6z"></path>
	</g>
	<path class="st1" d="M511.6,270.4l-35-19.5C474.7,169.4,428.9,96.3,356,59.2c-31.1-15.9-64.8-23.9-99.9-23.9
		c-35.2,0-68.8,8-99.9,23.9C83.1,96.3,37.3,169.4,35.5,250.9l-35,19.5c0.5,9.2,1.5,18.3,3,27.2l33.1-18.4
		C48.2,390.1,142.1,476.7,256,476.7c113.9,0,207.8-86.7,219.5-197.5l33.1,18.4C510.1,288.8,511.1,279.7,511.6,270.4z M256,468.3
		c-117.1,0-212.3-95.2-212.3-212.3c0-80.4,44.5-152.9,116.2-189.4c29.9-15.2,62.3-23,96.1-23c33.8,0,66.2,7.7,96.1,23
		c71.7,36.4,116.2,109,116.2,189.4C468.3,373.1,373.1,468.3,256,468.3z"></path>
	<g>
		<path class="st4" d="M493.6,267.9h-4.6c-2.4,61.1-28.9,119.7-71.9,161.2c-42.9,41.7-101.8,65.6-161.2,65.4
			c-59.5,0.3-118.4-23.7-161.3-65.3c-43-41.5-69.5-100.1-71.8-161.3h-4.6C17,299,22.5,330.6,33.6,360c11.3,29.4,28.7,56.7,50.9,79.4
			c22.1,22.9,49,41.1,78.3,53.6c29.4,12.5,61.3,18.8,93.3,18.9c31.9-0.1,63.9-6.5,93.3-18.9c29.3-12.5,56.3-30.7,78.3-53.6
			c22.2-22.8,39.5-50,50.9-79.5C489.6,330.6,495.1,299,493.6,267.9z"></path>
		<path class="st4" d="M235.4,141.2c-5.7,5.7-8.5,13.1-8.5,20.6H256v-29.1C248.6,132.7,241.1,135.6,235.4,141.2z"></path>
		<path class="st4" d="M276.6,182.4c5.7-5.7,8.5-13.1,8.5-20.6H256v29.1C263.4,190.9,270.9,188.1,276.6,182.4z"></path>
		<path class="st4" d="M184.6,117c14.2-18,31.7-33.8,51.6-46.5c10.2-6.6,21-12.2,32.1-16.9c-30.6,0.1-60.2,5.9-88.1,17.2
			c-1.5,0.6-2.5,2.1-2.5,3.7v40C177.7,118.2,182.3,119.9,184.6,117z"></path>
	</g>
</g>
</svg>
